<svg xmlns="http://www.w3.org/2000/svg" id="Layer_1" data-name="Layer 1" viewBox="0 0 34.43 36.93" class="c2 style-svg replaced-svg svg-replaced-1"><defs><style>.cls-1{fill:#2ca9e3;}</style></defs><title>phone</title><path class="cls-1" d="M0,10.92c0-.24,0-.49.05-.73A11.8,11.8,0,0,1,1,6.32a11,11,0,0,1,1.66-2.7A10.88,10.88,0,0,1,4.22,2.08c.49-.4,1-.81,1.44-1.22A3.87,3.87,0,0,1,6.72.17a2.23,2.23,0,0,1,2,.15,5.41,5.41,0,0,1,1.59,1.46A28.22,28.22,0,0,1,12,4.22,17.34,17.34,0,0,1,13,6.09a6.53,6.53,0,0,1,.64,2.08,3.28,3.28,0,0,1-.85,2.66c-.39.43-.86.79-1.28,1.2a13.37,13.37,0,0,1-1.35,1,2.79,2.79,0,0,0-1.15,1.58,3.45,3.45,0,0,0,0,1.69A8.42,8.42,0,0,0,10,18.48a22.36,22.36,0,0,0,2.38,3.35A34.36,34.36,0,0,0,15,24.7a13.15,13.15,0,0,0,2.58,2,5,5,0,0,0,1.8.66,2.61,2.61,0,0,0,2.2-.67,4.12,4.12,0,0,0,.37-.35,13.07,13.07,0,0,1,1.63-1.53,8.41,8.41,0,0,1,1-.77,3.32,3.32,0,0,1,2.85-.27A6.82,6.82,0,0,1,29.62,25c.8.63,1.57,1.3,2.35,2a11.06,11.06,0,0,1,1.53,1.53,4,4,0,0,1,.86,1.62c0,.1,0,.21.07.31v.38a1.36,1.36,0,0,0,0,.17,2.77,2.77,0,0,1-.93,1.54c-.44.41-.92.79-1.35,1.21a11.49,11.49,0,0,1-3.27,2.25,11.37,11.37,0,0,1-3.84,1l-.68,0H23.8l-.15,0-1-.07A14.36,14.36,0,0,1,19.11,36a21.32,21.32,0,0,1-5-2.77A34.44,34.44,0,0,1,10.35,30a51.73,51.73,0,0,1-3.86-4.25,38.37,38.37,0,0,1-3.25-4.58A23.41,23.41,0,0,1,.56,15.14a15.18,15.18,0,0,1-.51-3c0-.23,0-.46,0-.69Z"></path></svg>